<svg width="34" height="34" viewBox="0 0 34 34" fill="none" xmlns="http://www.w3.org/2000/svg">
    <rect width="34" height="34" rx="10" fill="transparent"/>
    <path d="m18.166 17.008 7.596-7.57a.825.825 0 0 0 0-1.16.81.81 0 0 0-1.15-.021l-7.596 7.57-7.498-7.57a.81.81 0 0 0-1.182 0 .814.814 0 0 0 0 1.094l7.498 7.559-7.596 7.558a.825.825 0 0 0 0 1.16.789.789 0 0 0 .575.24.831.831 0 0 0 .608-.196l7.595-7.57 7.596 7.657a.79.79 0 0 0 .575.241.8.8 0 0 0 .575-.24.825.825 0 0 0 0-1.16l-7.596-7.592z" fill="#495057"/>
</svg>
